<svg xmlns="http://www.w3.org/2000/svg" width="480" height="482" viewBox="0 0 480 482" font-family="'Segoe UI', Ubuntu, Helvetica, Arial, sans-serif">
  <style>
    .title { font-size: 17px; font-weight: 600; fill: #24292f; }
    .section { font-size: 13px; font-weight: 600; fill: #24292f; }
    .breadth { font-size: 12px; font-weight: 600; fill: #24292f; }
    .axis { font-size: 9px; fill: #8b949e; }
    .muted { font-size: 11px; font-weight: 400; fill: #8b949e; }
    .legend { font-size: 12px; fill: #24292f; }
    .rule { stroke: #d8dee4; stroke-width: 1; }
  </style>
  <rect x="0.5" y="0.5" width="479" height="481" rx="6" fill="#ffffff" stroke="#d0d7de"/>
  <text x="24" y="34" class="title">Coding activity</text><text x="24" y="52" class="muted">Summary data</text><text x="24" y="74" class="breadth">25 repositories&#160;&#160;·&#160;&#160;8 languages&#160;&#160;·&#160;&#160;active since 2019</text><line x1="24" y1="90" x2="456" y2="90" class="rule"/><text x="24" y="114" class="section">Contribution activity</text><text x="351" y="114" text-anchor="end" class="muted">Less</text><rect x="357" y="105" width="11" height="11" rx="2" fill="#ebedf0"/><rect x="370" y="105" width="11" height="11" rx="2" fill="#9be9a8"/><rect x="383" y="105" width="11" height="11" rx="2" fill="#40c463"/><rect x="396" y="105" width="11" height="11" rx="2" fill="#30a14e"/><rect x="409" y="105" width="11" height="11" rx="2" fill="#216e39"/><text x="426" y="114" class="muted">More</text><text x="69.4" y="126" text-anchor="middle" class="axis">J</text><text x="103.1" y="126" text-anchor="middle" class="axis">F</text><text x="136.9" y="126" text-anchor="middle" class="axis">M</text><text x="170.6" y="126" text-anchor="middle" class="axis">A</text><text x="204.4" y="126" text-anchor="middle" class="axis">M</text><text x="238.1" y="126" text-anchor="middle" class="axis">J</text><text x="271.9" y="126" text-anchor="middle" class="axis">J</text><text x="305.6" y="126" text-anchor="middle" class="axis">A</text><text x="339.4" y="126" text-anchor="middle" class="axis">S</text><text x="373.1" y="126" text-anchor="middle" class="axis">O</text><text x="406.9" y="126" text-anchor="middle" class="axis">N</text><text x="440.6" y="126" text-anchor="middle" class="axis">D</text><text x="24" y="145.0" class="axis">2019</text><rect x="54.0" y="134.0" width="30.8" height="13" rx="2" fill="#ebedf0"/><rect x="87.8" y="134.0" width="30.8" height="13" rx="2" fill="#ebedf0"/><rect x="121.5" y="134.0" width="30.8" height="13" rx="2" fill="#ebedf0"/><rect x="155.2" y="134.0" width="30.8" height="13" rx="2" fill="#ebedf0"/><rect x="189.0" y="134.0" width="30.8" height="13" rx="2" fill="#ebedf0"/><rect x="222.8" y="134.0" width="30.8" height="13" rx="2" fill="#ebedf0"/><rect x="256.5" y="134.0" width="30.8" height="13" rx="2" fill="#ebedf0"/><rect x="290.2" y="134.0" width="30.8" height="13" rx="2" fill="#ebedf0"/><rect x="324.0" y="134.0" width="30.8" height="13" rx="2" fill="#ebedf0"/><rect x="357.8" y="134.0" width="30.8" height="13" rx="2" fill="#9be9a8"/><rect x="391.5" y="134.0" width="30.8" height="13" rx="2" fill="#40c463"/><rect x="425.2" y="134.0" width="30.8" height="13" rx="2" fill="#9be9a8"/><text x="24" y="162.0" class="axis">2020</text><rect x="54.0" y="151.0" width="30.8" height="13" rx="2" fill="#ebedf0"/><rect x="87.8" y="151.0" width="30.8" height="13" rx="2" fill="#ebedf0"/><rect x="121.5" y="151.0" width="30.8" height="13" rx="2" fill="#9be9a8"/><rect x="155.2" y="151.0" width="30.8" height="13" rx="2" fill="#ebedf0"/><rect x="189.0" y="151.0" width="30.8" height="13" rx="2" fill="#ebedf0"/><rect x="222.8" y="151.0" width="30.8" height="13" rx="2" fill="#ebedf0"/><rect x="256.5" y="151.0" width="30.8" height="13" rx="2" fill="#ebedf0"/><rect x="290.2" y="151.0" width="30.8" height="13" rx="2" fill="#ebedf0"/><rect x="324.0" y="151.0" width="30.8" height="13" rx="2" fill="#ebedf0"/><rect x="357.8" y="151.0" width="30.8" height="13" rx="2" fill="#ebedf0"/><rect x="391.5" y="151.0" width="30.8" height="13" rx="2" fill="#ebedf0"/><rect x="425.2" y="151.0" width="30.8" height="13" rx="2" fill="#ebedf0"/><text x="24" y="179.0" class="axis">2021</text><rect x="54.0" y="168.0" width="30.8" height="13" rx="2" fill="#ebedf0"/><rect x="87.8" y="168.0" width="30.8" height="13" rx="2" fill="#ebedf0"/><rect x="121.5" y="168.0" width="30.8" height="13" rx="2" fill="#ebedf0"/><rect x="155.2" y="168.0" width="30.8" height="13" rx="2" fill="#ebedf0"/><rect x="189.0" y="168.0" width="30.8" height="13" rx="2" fill="#ebedf0"/><rect x="222.8" y="168.0" width="30.8" height="13" rx="2" fill="#ebedf0"/><rect x="256.5" y="168.0" width="30.8" height="13" rx="2" fill="#ebedf0"/><rect x="290.2" y="168.0" width="30.8" height="13" rx="2" fill="#ebedf0"/><rect x="324.0" y="168.0" width="30.8" height="13" rx="2" fill="#ebedf0"/><rect x="357.8" y="168.0" width="30.8" height="13" rx="2" fill="#ebedf0"/><rect x="391.5" y="168.0" width="30.8" height="13" rx="2" fill="#ebedf0"/><rect x="425.2" y="168.0" width="30.8" height="13" rx="2" fill="#ebedf0"/><text x="24" y="196.0" class="axis">2022</text><rect x="54.0" y="185.0" width="30.8" height="13" rx="2" fill="#ebedf0"/><rect x="87.8" y="185.0" width="30.8" height="13" rx="2" fill="#ebedf0"/><rect x="121.5" y="185.0" width="30.8" height="13" rx="2" fill="#ebedf0"/><rect x="155.2" y="185.0" width="30.8" height="13" rx="2" fill="#ebedf0"/><rect x="189.0" y="185.0" width="30.8" height="13" rx="2" fill="#ebedf0"/><rect x="222.8" y="185.0" width="30.8" height="13" rx="2" fill="#ebedf0"/><rect x="256.5" y="185.0" width="30.8" height="13" rx="2" fill="#ebedf0"/><rect x="290.2" y="185.0" width="30.8" height="13" rx="2" fill="#ebedf0"/><rect x="324.0" y="185.0" width="30.8" height="13" rx="2" fill="#ebedf0"/><rect x="357.8" y="185.0" width="30.8" height="13" rx="2" fill="#ebedf0"/><rect x="391.5" y="185.0" width="30.8" height="13" rx="2" fill="#30a14e"/><rect x="425.2" y="185.0" width="30.8" height="13" rx="2" fill="#ebedf0"/><text x="24" y="213.0" class="axis">2023</text><rect x="54.0" y="202.0" width="30.8" height="13" rx="2" fill="#ebedf0"/><rect x="87.8" y="202.0" width="30.8" height="13" rx="2" fill="#9be9a8"/><rect x="121.5" y="202.0" width="30.8" height="13" rx="2" fill="#40c463"/><rect x="155.2" y="202.0" width="30.8" height="13" rx="2" fill="#40c463"/><rect x="189.0" y="202.0" width="30.8" height="13" rx="2" fill="#40c463"/><rect x="222.8" y="202.0" width="30.8" height="13" rx="2" fill="#ebedf0"/><rect x="256.5" y="202.0" width="30.8" height="13" rx="2" fill="#9be9a8"/><rect x="290.2" y="202.0" width="30.8" height="13" rx="2" fill="#9be9a8"/><rect x="324.0" y="202.0" width="30.8" height="13" rx="2" fill="#ebedf0"/><rect x="357.8" y="202.0" width="30.8" height="13" rx="2" fill="#ebedf0"/><rect x="391.5" y="202.0" width="30.8" height="13" rx="2" fill="#ebedf0"/><rect x="425.2" y="202.0" width="30.8" height="13" rx="2" fill="#ebedf0"/><text x="24" y="230.0" class="axis">2024</text><rect x="54.0" y="219.0" width="30.8" height="13" rx="2" fill="#ebedf0"/><rect x="87.8" y="219.0" width="30.8" height="13" rx="2" fill="#9be9a8"/><rect x="121.5" y="219.0" width="30.8" height="13" rx="2" fill="#ebedf0"/><rect x="155.2" y="219.0" width="30.8" height="13" rx="2" fill="#ebedf0"/><rect x="189.0" y="219.0" width="30.8" height="13" rx="2" fill="#ebedf0"/><rect x="222.8" y="219.0" width="30.8" height="13" rx="2" fill="#ebedf0"/><rect x="256.5" y="219.0" width="30.8" height="13" rx="2" fill="#ebedf0"/><rect x="290.2" y="219.0" width="30.8" height="13" rx="2" fill="#40c463"/><rect x="324.0" y="219.0" width="30.8" height="13" rx="2" fill="#216e39"/><rect x="357.8" y="219.0" width="30.8" height="13" rx="2" fill="#ebedf0"/><rect x="391.5" y="219.0" width="30.8" height="13" rx="2" fill="#40c463"/><rect x="425.2" y="219.0" width="30.8" height="13" rx="2" fill="#9be9a8"/><text x="24" y="247.0" class="axis">2025</text><rect x="54.0" y="236.0" width="30.8" height="13" rx="2" fill="#40c463"/><rect x="87.8" y="236.0" width="30.8" height="13" rx="2" fill="#40c463"/><rect x="121.5" y="236.0" width="30.8" height="13" rx="2" fill="#216e39"/><rect x="155.2" y="236.0" width="30.8" height="13" rx="2" fill="#ebedf0"/><rect x="189.0" y="236.0" width="30.8" height="13" rx="2" fill="#9be9a8"/><rect x="222.8" y="236.0" width="30.8" height="13" rx="2" fill="#216e39"/><rect x="256.5" y="236.0" width="30.8" height="13" rx="2" fill="#216e39"/><rect x="290.2" y="236.0" width="30.8" height="13" rx="2" fill="#216e39"/><rect x="324.0" y="236.0" width="30.8" height="13" rx="2" fill="#9be9a8"/><rect x="357.8" y="236.0" width="30.8" height="13" rx="2" fill="#9be9a8"/><rect x="391.5" y="236.0" width="30.8" height="13" rx="2" fill="#30a14e"/><rect x="425.2" y="236.0" width="30.8" height="13" rx="2" fill="#ebedf0"/><text x="24" y="264.0" class="axis">2026</text><rect x="54.0" y="253.0" width="30.8" height="13" rx="2" fill="#30a14e"/><rect x="87.8" y="253.0" width="30.8" height="13" rx="2" fill="#30a14e"/><rect x="121.5" y="253.0" width="30.8" height="13" rx="2" fill="#ebedf0"/><rect x="155.2" y="253.0" width="30.8" height="13" rx="2" fill="#ebedf0"/><rect x="189.0" y="253.0" width="30.8" height="13" rx="2" fill="#ebedf0"/><rect x="222.8" y="253.0" width="30.8" height="13" rx="2" fill="#ebedf0"/><rect x="256.5" y="253.0" width="30.8" height="13" rx="2" fill="#216e39"/><rect x="290.2" y="253.0" width="30.8" height="13" rx="2" fill="#ebedf0"/><rect x="324.0" y="253.0" width="30.8" height="13" rx="2" fill="#ebedf0"/><rect x="357.8" y="253.0" width="30.8" height="13" rx="2" fill="#ebedf0"/><rect x="391.5" y="253.0" width="30.8" height="13" rx="2" fill="#ebedf0"/><rect x="425.2" y="253.0" width="30.8" height="13" rx="2" fill="#ebedf0"/><line x1="24" y1="282" x2="456" y2="282" class="rule"/><text x="24" y="308" class="section">Languages <tspan class="muted">(share of code authored)</tspan></text><g transform="translate(0,324)"><rect x="24.0" y="0" width="159.7" height="10" fill="#3572A5"/><rect x="183.7" y="0" width="103.1" height="10" fill="#f1e05a"/><rect x="286.8" y="0" width="78.1" height="10" fill="#3178c6"/><rect x="364.9" y="0" width="60.5" height="10" fill="#012456"/><rect x="425.5" y="0" width="19.4" height="10" fill="#178600"/><rect x="444.8" y="0" width="10.8" height="10" fill="#e38c00"/></g><circle cx="29" cy="352" r="5" fill="#3572A5"/><text x="40" y="356" class="legend">Python <tspan class="muted">37.0%</tspan></text><circle cx="245" cy="352" r="5" fill="#f1e05a"/><text x="256" y="356" class="legend">JavaScript <tspan class="muted">23.9%</tspan></text><circle cx="29" cy="372" r="5" fill="#3178c6"/><text x="40" y="376" class="legend">TypeScript <tspan class="muted">18.1%</tspan></text><circle cx="245" cy="372" r="5" fill="#012456"/><text x="256" y="376" class="legend">PowerShell <tspan class="muted">14.0%</tspan></text><circle cx="29" cy="392" r="5" fill="#178600"/><text x="40" y="396" class="legend">C# <tspan class="muted">4.5%</tspan></text><circle cx="245" cy="392" r="5" fill="#e38c00"/><text x="256" y="396" class="legend">SQL <tspan class="muted">2.5%</tspan></text><line x1="24" y1="430" x2="456" y2="430" class="rule"/><text x="24" y="450" class="muted">includes private repositories · updated 2026-07-24</text>
</svg>
